<?xml version="1.0" encoding="UTF-8" standalone="no"?>
<svg
   width="24"
   height="24"
   viewBox="0 0 24 24"
   fill="none"
   stroke="currentColor"
   stroke-width="2"
   stroke-linecap="round"
   stroke-linejoin="round"
   class="lucide lucide-shield-icon lucide-shield"
   version="1.1"
   id="svg1"
   sodipodi:docname="shield.svg"
   xml:space="preserve"
   inkscape:version="1.4.2 (ebf0e940d0, 2025-05-08)"
   xmlns:inkscape="http://www.inkscape.org/namespaces/inkscape"
   xmlns:sodipodi="http://sodipodi.sourceforge.net/DTD/sodipodi-0.dtd"
   xmlns:xlink="http://www.w3.org/1999/xlink"
   xmlns="http://www.w3.org/2000/svg"
   xmlns:svg="http://www.w3.org/2000/svg"><defs
     id="defs1"><linearGradient
       id="linearGradient1"
       inkscape:collect="always"><stop
         style="stop-color:#ad54f0;stop-opacity:1;"
         offset="0"
         id="stop1" /><stop
         style="stop-color:#e749a0;stop-opacity:1;"
         offset="1"
         id="stop2" /></linearGradient><linearGradient
       inkscape:collect="always"
       xlink:href="#linearGradient1"
       id="linearGradient2"
       x1="4.2213306"
       y1="4.2213316"
       x2="19.81011"
       y2="19.81011"
       gradientUnits="userSpaceOnUse"
       gradientTransform="translate(-0.99278882,-0.99278868)" /></defs><sodipodi:namedview
     id="namedview1"
     pagecolor="#ffffff"
     bordercolor="#000000"
     borderopacity="0.25"
     inkscape:showpageshadow="2"
     inkscape:pageopacity="0.0"
     inkscape:pagecheckerboard="0"
     inkscape:deskcolor="#d1d1d1"
     inkscape:zoom="22.627417"
     inkscape:cx="3.314563"
     inkscape:cy="12.131301"
     inkscape:window-width="1920"
     inkscape:window-height="1043"
     inkscape:window-x="0"
     inkscape:window-y="0"
     inkscape:window-maximized="1"
     inkscape:current-layer="svg1" /><rect
     style="fill:url(#linearGradient2);stroke:none;stroke-width:1.95414"
     id="rect1"
     width="24"
     height="24"
     x="0"
     y="0"
     rx="5" /><path
     d="m 17.364403,12.66859 c 0,3.352751 -2.346927,5.029127 -5.136416,6.001425 a 0.6705504,0.6705504 0 0 1 -0.449269,-0.0067 C 8.9825233,17.697717 6.6355968,16.021341 6.6355968,12.66859 V 7.9747365 A 0.6705504,0.6705504 0 0 1 7.3061472,7.3041861 c 1.3411009,0 3.0174768,-0.8046605 4.1842348,-1.8238971 a 0.78454397,0.78454397 0 0 1 1.019236,0 c 1.173463,1.0259422 2.843134,1.8238971 4.184234,1.8238971 a 0.6705504,0.6705504 0 0 1 0.670551,0.6705504 z"
     id="path1"
     style="stroke:#ffffff;stroke-width:1.3411;stroke-opacity:1" /></svg>
