<?xml version="1.0" encoding="utf-8"?>
<!-- Generator: Adobe Illustrator 24.1.1, SVG Export Plug-In . SVG Version: 6.00 Build 0)  -->
<svg version="1.1" id="Layer_1" xmlns="http://www.w3.org/2000/svg" xmlns:xlink="http://www.w3.org/1999/xlink" x="0px" y="0px"
	 viewBox="0 0 512 512" style="enable-background:new 0 0 512 512;" xml:space="preserve">
<style type="text/css">
	.st0{fill-rule:evenodd;clip-rule:evenodd;}
</style>
<g>
	<path class="st0" d="M168.7,50.9c-31.2,8.4-62.2,17.5-93,27.4C70,80,65.8,84.9,65,90.8c-18.2,133,23.8,230.1,73.9,294
		c25.1,32.1,52.3,55.8,75,71.4c11.4,7.8,21.4,13.4,29.2,17.1l9.6,3.8l3.3,0.8l3.3-0.8l9.6-3.8c7.8-3.6,17.9-9.3,29.2-17.1
		c28.4-19.9,53.7-44,75-71.4c50.1-63.9,92.1-161,73.9-294c-0.9-5.9-5.1-10.7-10.8-12.5c-21.4-6.8-57.4-18-93-27.4
		c-36.4-9.6-69.9-16.8-87.3-16.8C238.6,34.1,205.1,41.3,168.7,50.9z M160,17.9C195.6,8.5,233.4,0,256,0c22.6,0,60.4,8.5,96,17.9
		c31.8,8.5,63.3,17.8,94.6,27.8c18,5.7,31.6,21.3,34.2,40.4c19.6,143.2-25.8,249.4-80.8,319.7c-23.4,30.1-51.2,56.6-82.5,78.5
		c-10.9,7.6-22.4,14.3-34.4,20c-9.2,4.2-19,7.7-27.2,7.7c-8.1,0-18-3.4-27.2-7.7c-12-5.7-23.5-12.4-34.4-20
		c-31.3-21.9-59.1-48.4-82.5-78.5c-55-70.3-100.4-176.4-80.8-319.7c2.7-19,16-34.7,34.2-40.4C96.7,35.7,128.2,26.4,160,17.9z"/>
</g>
</svg>
